<mxfile host="app.diagrams.net" agent="Mozilla/5.0 (Macintosh; Intel Mac OS X 10_15_7) AppleWebKit/537.36 (KHTML, like Gecko) Chrome/130.0.0.0 Safari/537.36" version="24.8.3">
  <diagram name="Page-1" id="7DAjKrH0LfPsBHf6owdE">
    <mxGraphModel dx="187" dy="-149" grid="1" gridSize="10" guides="1" tooltips="1" connect="1" arrows="1" fold="1" page="1" pageScale="1" pageWidth="500" pageHeight="350" math="0" shadow="0">
      <root>
        <mxCell id="0" />
        <mxCell id="1" parent="0" />
        <mxCell id="LMMDELg8O4m6oDhh3x1k-1" value="P&amp;nbsp; &amp;nbsp;I&amp;nbsp; &amp;nbsp;C&amp;nbsp; &amp;nbsp;O&amp;nbsp; &amp;nbsp;S" style="text;html=1;align=center;verticalAlign=middle;whiteSpace=wrap;rounded=0;fontStyle=1;fontFamily=Helvetica;fillColor=none;fontColor=#ef7a08;strokeColor=none;fontSize=14;" parent="1" vertex="1">
          <mxGeometry x="190" y="480" width="100" height="20" as="geometry" />
        </mxCell>
      </root>
    </mxGraphModel>
  </diagram>
</mxfile>
